<svg width="122" height="39" viewBox="0 0 122 39" fill="none" xmlns="http://www.w3.org/2000/svg">
<rect x="75.0112" y="17.8784" width="21.9518" height="8.78071" rx="4.39035" stroke="#123E36" stroke-width="3.07325"/>
<rect x="75.0112" y="17.8784" width="8.78071" height="8.78071" rx="4.39035" stroke="#123E36" stroke-width="3.07325"/>
<path fill-rule="evenodd" clip-rule="evenodd" d="M26.5723 19.8882C26.9129 19.8205 27.266 19.8553 27.5869 19.9882C27.9078 20.1211 28.1821 20.3462 28.3751 20.635C28.568 20.9238 28.671 21.2633 28.671 21.6106L28.6712 21.6106V27.7571C28.6712 27.9996 28.8678 28.1962 29.1102 28.1962H31.3054C31.5479 28.1962 31.7445 27.9996 31.7445 27.7571V21.6106C31.7445 21.1449 31.9295 20.6982 32.2588 20.3689C32.5882 20.0395 33.0348 19.8545 33.5006 19.8545C33.9664 19.8545 34.413 20.0395 34.7424 20.3689C35.0717 20.6982 35.2567 21.1449 35.2567 21.6106V27.7571C35.2567 27.9996 35.4533 28.1962 35.6958 28.1962H37.891C38.1334 28.1962 38.33 27.9996 38.33 27.7571V21.6106C38.33 21.1449 38.515 20.6982 38.8444 20.3689C39.1737 20.0395 39.6204 19.8545 40.0861 19.8545C40.5519 19.8545 40.9986 20.0395 41.3279 20.3689C41.6573 20.6982 41.8423 21.1449 41.8423 21.6106L41.8577 21.6106V25.1229H44.931V21.6106L44.9155 21.6106C44.9155 20.3298 44.4067 19.1014 43.501 18.1957C42.5953 17.2901 41.367 16.7813 40.0861 16.7813C38.862 16.7813 37.6858 17.246 36.7934 18.0778C35.901 17.246 34.7247 16.7813 33.5006 16.7813C32.2764 16.7813 31.1002 17.246 30.2077 18.0779C29.7877 17.6864 29.299 17.3709 28.763 17.1489C27.8806 16.7833 26.9095 16.6877 25.9727 16.874C25.0359 17.0604 24.1754 17.5203 23.5 18.1957L25.6731 20.3689C25.9187 20.1233 26.2316 19.956 26.5723 19.8882Z" fill="#123E36"/>
<path d="M50.8655 25.1219C50.8655 25.612 50.7689 26.0973 50.5814 26.55C50.3939 27.0028 50.119 27.4142 49.7724 27.7607C49.4259 28.1072 49.0145 28.3821 48.5618 28.5697C48.109 28.7572 47.6237 28.8537 47.1337 28.8537C46.6436 28.8537 46.1583 28.7572 45.7056 28.5697C45.2528 28.3821 44.8414 28.1072 44.4949 27.7607C44.1483 27.4142 43.8735 27.0028 43.6859 26.55C43.4984 26.0973 43.4019 25.612 43.4019 25.1219" stroke="#123E36" stroke-width="3.07325"/>
<path d="M64.0354 25.1219C64.0354 25.612 63.9389 26.0973 63.7513 26.55C63.5638 27.0028 63.2889 27.4142 62.9424 27.7607C62.5958 28.1072 62.1844 28.3821 61.7317 28.5697C61.2789 28.7572 60.7936 28.8537 60.3036 28.8537C59.8135 28.8537 59.3282 28.7572 58.8755 28.5697C58.4227 28.3821 58.0113 28.1072 57.6648 27.7607C57.3183 27.4142 57.0434 27.0028 56.8558 26.55C56.6683 26.0973 56.5718 25.612 56.5718 25.1219" stroke="#123E36" stroke-width="3.07325"/>
<path fill-rule="evenodd" clip-rule="evenodd" d="M55.4741 16.7812C55.2316 16.7812 55.035 16.9778 55.035 17.2203V17.4255C54.6677 17.2344 54.2799 17.0834 53.878 16.9757C53.154 16.7817 52.3989 16.7322 51.6558 16.8301C50.9127 16.9279 50.1962 17.1711 49.5471 17.5459C48.898 17.9207 48.3291 18.4196 47.8728 19.0142C47.4165 19.6089 47.0818 20.2875 46.8878 21.0115C46.6938 21.7355 46.6444 22.4906 46.7422 23.2337C46.84 23.9768 47.0833 24.6933 47.458 25.3424C47.8328 25.9915 48.3317 26.5605 48.9263 27.0167C49.521 27.473 50.1996 27.8077 50.9236 28.0017C51.6476 28.1957 52.4027 28.2452 53.1458 28.1473C53.8889 28.0495 54.6054 27.8063 55.2545 27.4315C55.8898 27.0647 56.4483 26.579 56.8996 26.001H57.6692C57.9117 26.001 58.1083 25.8044 58.1083 25.562V17.2203C58.1083 16.9778 57.9117 16.7812 57.6692 16.7812H55.4741ZM52.7447 25.1004C52.4017 25.1455 52.0532 25.1227 51.719 25.0332C51.3849 24.9436 51.0717 24.7892 50.7972 24.5786C50.5228 24.368 50.2925 24.1054 50.1195 23.8058C49.9466 23.5062 49.8343 23.1755 49.7891 22.8325C49.744 22.4896 49.7668 22.1411 49.8564 21.8069C49.9459 21.4728 50.1004 21.1595 50.311 20.8851C50.5215 20.6107 50.7841 20.3804 51.0837 20.2074C51.3833 20.0345 51.714 19.9222 52.057 19.877C52.4 19.8319 52.7485 19.8547 53.0826 19.9443C53.4167 20.0338 53.73 20.1883 54.0044 20.3988C54.2789 20.6094 54.5091 20.872 54.6821 21.1716C54.8551 21.4712 54.9673 21.8019 55.0125 22.1449C55.0576 22.4878 55.0348 22.8364 54.9453 23.1705C54.8557 23.5046 54.7013 23.8179 54.4907 24.0923C54.2801 24.3668 54.0175 24.597 53.7179 24.77C53.4183 24.943 53.0876 25.0552 52.7447 25.1004Z" fill="#123E36"/>
<path fill-rule="evenodd" clip-rule="evenodd" d="M62.5 8.87807C62.5 8.39313 62.8931 8 63.3781 8H64.2561H64.6952C64.769 8 64.8406 8.0091 64.9091 8.02625C66.8825 8.1852 68.7448 9.06064 70.1546 10.5075C71.7189 12.113 72.5978 14.2905 72.5978 16.5612C72.5978 18.8318 71.7189 21.0094 70.1546 22.6149C68.9116 23.8906 67.3167 24.7221 65.6042 25.0099C65.6163 25.0435 65.6271 25.0777 65.6366 25.1122C65.7295 25.4524 65.877 25.7774 66.0751 26.0738C66.4369 26.6153 66.9512 27.0374 67.5528 27.2866C68.1545 27.5358 68.8166 27.601 69.4553 27.474C69.805 27.4044 70.1391 27.2789 70.4454 27.1041C70.8666 26.8636 71.4192 26.8508 71.7622 27.1937L72.6935 28.125C73.0364 28.4679 73.0395 29.0296 72.6527 29.3221C71.8889 29.8997 71.0014 30.2999 70.0549 30.4882C68.82 30.7338 67.54 30.6077 66.3768 30.1259C65.2135 29.6441 64.2193 28.8281 63.5198 27.7812C62.9836 26.9788 62.639 26.0683 62.5074 25.1198C62.4947 25.0285 62.4989 24.9403 62.5172 24.8573C62.5059 24.8011 62.5 24.7429 62.5 24.6833V8.87807ZM65.5732 21.8747C66.4591 21.6363 67.2829 21.1583 67.9534 20.4702C68.9507 19.4467 69.5246 18.042 69.5246 16.5612C69.5246 15.0804 68.9507 13.6757 67.9534 12.6522C67.2829 11.964 66.4591 11.486 65.5732 11.2477V21.8747Z" fill="#123E36"/>
</svg>
